<?xml version="1.0" encoding="utf-8"?>
<!-- Generator: Adobe Illustrator 14.0.0, SVG Export Plug-In . SVG Version: 6.00 Build 43363)  -->
<!DOCTYPE svg PUBLIC "-//W3C//DTD SVG 1.1//EN" "http://www.w3.org/Graphics/SVG/1.1/DTD/svg11.dtd">
<svg version="1.1" id="Ebene_1" xmlns="http://www.w3.org/2000/svg" xmlns:xlink="http://www.w3.org/1999/xlink" x="0px" y="0px"
	 width="22px" height="22px" viewBox="0 0 22 22" enable-background="new 0 0 22 22" xml:space="preserve">
<g>
	<path fill="#FFFFFF" stroke="#FFFFFF" stroke-width="0.5" d="M20.468,7.478c0.001,0.094-0.035,0.184-0.102,0.25L7.981,20.181
		c-0.138,0.14-0.362,0.14-0.502,0.003l-3.905-3.839c-0.14-0.139-0.141-0.361-0.003-0.501L15.956,3.391
		c0.137-0.139,0.361-0.14,0.502-0.003l3.905,3.84C20.431,7.294,20.468,7.384,20.468,7.478z M7.726,19.434L19.611,7.482l-3.4-3.343
		L4.325,16.089L7.726,19.434z"/>
	<g>
		<path fill="#FFFFFF" stroke="#FFFFFF" stroke-width="0.5" d="M6.534,15.409c0,0.079-0.028,0.157-0.088,0.216
			c-0.118,0.122-0.31,0.122-0.428,0.003l-0.84-0.833c-0.119-0.119-0.12-0.31-0.002-0.432c0.118-0.119,0.309-0.12,0.428-0.001
			l0.84,0.832C6.503,15.255,6.533,15.333,6.534,15.409z"/>
		<path fill="#FFFFFF" stroke="#FFFFFF" stroke-width="0.5" d="M9.593,14.653c0.001,0.091-0.033,0.182-0.102,0.253
			c-0.139,0.137-0.363,0.138-0.502,0.001l-1.935-1.902c-0.14-0.137-0.141-0.36-0.002-0.5c0.138-0.138,0.362-0.139,0.501-0.001
			l1.934,1.9C9.558,14.475,9.593,14.562,9.593,14.653z"/>
		<path fill="#FFFFFF" stroke="#FFFFFF" stroke-width="0.5" d="M13.317,10.909c0,0.091-0.033,0.181-0.103,0.25
			c-0.138,0.139-0.362,0.14-0.502,0.003l-1.934-1.901c-0.14-0.137-0.141-0.361-0.002-0.499c0.137-0.139,0.363-0.14,0.502-0.003
			l1.935,1.901C13.281,10.729,13.317,10.819,13.317,10.909z"/>
		<path fill="#FFFFFF" stroke="#FFFFFF" stroke-width="0.5" d="M17.04,7.166c0.001,0.091-0.033,0.181-0.101,0.25
			c-0.14,0.139-0.363,0.14-0.504,0.003l-1.933-1.901c-0.14-0.137-0.142-0.361-0.002-0.499c0.138-0.139,0.363-0.14,0.502-0.003
			l1.933,1.901C17.005,6.985,17.04,7.076,17.04,7.166z"/>
		<path fill="#FFFFFF" stroke="#FFFFFF" stroke-width="0.5" d="M10.44,11.596c0,0.078-0.028,0.156-0.087,0.216
			c-0.119,0.12-0.311,0.121-0.429,0.003l-0.84-0.834c-0.12-0.118-0.12-0.31-0.003-0.431c0.118-0.12,0.31-0.122,0.429-0.002
			l0.84,0.833C10.41,11.44,10.44,11.519,10.44,11.596z"/>
		<path fill="#FFFFFF" stroke="#FFFFFF" stroke-width="0.5" d="M13.957,8.047c0,0.078-0.029,0.155-0.088,0.215
			c-0.117,0.12-0.31,0.121-0.429,0.003L12.6,7.431C12.481,7.313,12.48,7.12,12.599,7c0.117-0.119,0.31-0.121,0.427-0.002
			l0.843,0.833C13.926,7.891,13.957,7.969,13.957,8.047z"/>
	</g>
</g>
</svg>
